<svg width="462" height="174" viewBox="0 0 462 174" fill="none" xmlns="http://www.w3.org/2000/svg">
<path d="M437.98 160.45H450V147.4H461.44V25.9H450V12.9L437.98 12.9V0L65.99 0V12.79H54.16V25.85H42.43V37.23H0V53.5H7.21002V64.62H19.04V77.67H30.87V90.73H42.53V147.4H54.16V160.45H65.99V173.3L437.98 173.3V160.45Z" fill="black"/>
<path d="M57.2583 87.42H45.6883V74.36H33.8683V61.3H22.0383V53.5L57.2583 53.5V29.16L68.9883 29.16V16.26L437.46 16.26V29.27H449V144.08H437.46V157.03L68.9883 157.03V144.08H57.2583V87.42Z" fill="white"/>
</svg>
