<svg width="462" height="174" viewBox="0 0 462 174" fill="none" xmlns="http://www.w3.org/2000/svg">
<path d="M23.46 160.45H11.44L11.44 147.4H0L0 25.9H11.44L11.44 12.9L23.46 12.9V0L395.45 0V12.79H407.28V25.85H419.01V37.23H461.44V53.5H454.23V64.62H442.4V77.67H430.57V90.73H418.91V147.4H407.28V160.45H395.45V173.3L23.46 173.3V160.45Z" fill="black"/>
<path d="M404.182 87.42H415.752V74.36H427.572V61.3H439.402V53.5L404.182 53.5V29.16L392.452 29.16V16.26L23.98 16.26V29.27H12.44L12.44 144.08H23.98V157.03L392.452 157.03V144.08H404.182V87.42Z" fill="white"/>
</svg>
