<svg width="421" height="231" viewBox="0 0 421 231" fill="none" xmlns="http://www.w3.org/2000/svg">
<path d="M0 23.57H12.95V11.76H26.01V0H395.1V11.63H408.16V23.46H421L421 148.04H408.17V159.87H395.1V171.5H115.33V183.32H102.27V195.15H89.22V206.98H76.16V218.81H63.1V230.64H38.97V171.81H26.05V159.98H12.96V148.15H0V23.57Z" fill="black"/>
<path d="M27.08 143.38V155.21H52.97V214.04H57.53V202.21H70.58V190.38H83.64V178.55H96.7V166.72H109.75V155L391.73 155V143.27H404.67V26.46H391.72V14.73L27.06 14.73V26.58H14V143.38H27.08Z" fill="white"/>
</svg>
