<svg width="449" height="197" viewBox="0 0 449 197" fill="none" xmlns="http://www.w3.org/2000/svg">
<path d="M448.87 23.57H435.92V11.76H422.86V0H26.07V11.63H13.01V23.46H0.169985V113.71H13V125.54H26.07V137.17H333.54V148.99H346.6V160.82H359.65V172.65H372.71V184.48H385.77V196.31H409.9V137.48H422.82V125.65H435.91V113.82H448.87V23.57Z" fill="black"/>
<path d="M419.53 110.82V122.65H393.64V181.48H389.08V169.65H376.03V157.82H362.97V145.99H349.91V134.16H336.86V122.44H29.44V110.71H16.5V26.46H29.45V14.73L419.55 14.73V26.58H432.61V110.82H419.53Z" fill="white"/>
</svg>
