<svg width="421" height="231" viewBox="0 0 421 231" fill="none" xmlns="http://www.w3.org/2000/svg">
<path d="M421 207.43H408.05V219.24H394.99V231L25.9 231V219.37H12.84L12.84 207.54H0L1.90735e-06 82.96H12.83L12.83 71.13H25.9V59.5L305.67 59.5V47.68H318.73V35.85H331.78V24.02H344.84V12.19L357.9 12.19V0.360001H382.03V59.19H394.95V71.02H408.04V82.85H421V207.43Z" fill="black"/>
<path d="M393.92 87.62V75.79H368.03V16.96L363.47 16.96V28.79H350.42V40.62H337.36V52.45H324.3V64.28H311.25V76L29.27 76L29.27 87.73H16.33L16.33 204.54H29.28V216.27L393.94 216.27V204.42H407V87.62H393.92Z" fill="white"/>
</svg>
