<svg width="421" height="231" viewBox="0 0 421 231" fill="none" xmlns="http://www.w3.org/2000/svg">
<path d="M421 23.57H408.05V11.76H394.99V0H25.9V11.63H12.84V23.46H0L1.90735e-06 148.04H12.83V159.87H25.9V171.5H305.67V183.32H318.73V195.15H331.78V206.98H344.84V218.81H357.9V230.64H382.03V171.81H394.95V159.98H408.04V148.15H421V23.57Z" fill="black"/>
<path d="M393.92 143.38V155.21H368.03V214.04H363.47V202.21H350.42V190.38H337.36V178.55H324.3V166.72H311.25V155L29.27 155V143.27H16.33V26.46H29.28V14.73L393.94 14.73V26.58H407V143.38H393.92Z" fill="white"/>
</svg>
